<?xml version="1.0" encoding="UTF-8"?>
<svg id="SVGDoc" width="36" height="34" xmlns="http://www.w3.org/2000/svg" version="1.1" xmlns:xlink="http://www.w3.org/1999/xlink" xmlns:avocode="https://avocode.com/" viewBox="0 0 36 34"><defs></defs><desc>Generated with Avocode.</desc><g><g><title>Списком</title><g><title>Списком активная кнопка</title><g><title>Фигура 49 копия 5</title><path d="M-0.0297,0.94537v0h35.03318v0v33.05396v0h-35.03318v0z" fill="#4da0b9" fill-opacity="1"></path></g><g><title>Фигура 56 копия 4</title><path d="M13.1919,10.86156v0h16.52708v0v2.47894v0h-16.52708v0z" fill="#ffffff" fill-opacity="1"></path></g><g><title>Фигура 56 копия 16</title><path d="M13.1919,15.81958v0h16.52708v0v2.47908v0h-16.52708v0z" fill="#ffffff" fill-opacity="1"></path></g><g><title>Фигура 56 копия 16</title><path d="M13.1919,21.60392v0h16.52708v0v2.47937v0h-16.52708v0z" fill="#ffffff" fill-opacity="1"></path></g><g><title>Фигура 56 копия 16</title><path d="M5.75473,10.86156v0h4.13177v0v2.47894v0h-4.13177v0z" fill="#ffffff" fill-opacity="1"></path></g><g><title>Фигура 56 копия 16</title><path d="M5.75473,15.81958v0h4.13177v0v2.47908v0h-4.13177v0z" fill="#ffffff" fill-opacity="1"></path></g><g><title>Фигура 56 копия 16</title><path d="M5.75473,21.60392v0h4.13177v0v2.47937v0h-4.13177v0z" fill="#ffffff" fill-opacity="1"></path></g></g></g></g></svg>